<?xml version="1.0" standalone="no"?>
<!DOCTYPE svg PUBLIC "-//W3C//DTD SVG 20010904//EN"
 "http://www.w3.org/TR/2001/REC-SVG-20010904/DTD/svg10.dtd">
<svg version="1.0" xmlns="http://www.w3.org/2000/svg"
 width="256.000000pt" height="256.000000pt" viewBox="0 0 256.000000 256.000000"
 preserveAspectRatio="xMidYMid meet">
<metadata>
Created by potrace 1.11, written by Peter Selinger 2001-2013
</metadata>
<g transform="translate(0.000000,256.000000) scale(0.100000,-0.100000)"
fill="#000000" stroke="none">
<path d="M1903 2182 c-62 -57 -182 -223 -333 -465 -91 -144 -328 -486 -447
-645 l-24 -32 -34 42 c-19 24 -62 79 -96 123 -35 44 -81 101 -103 126 -23 26
-50 62 -61 80 -11 18 -33 40 -50 49 -16 8 -35 21 -43 28 -22 20 -57 14 -85
-15 -15 -16 -34 -35 -42 -43 -56 -56 -133 -157 -222 -290 -31 -47 -70 -103
-88 -125 -29 -37 -62 -94 -183 -325 -24 -47 -51 -94 -58 -105 -21 -29 -18 -75
4 -75 10 0 26 -14 36 -31 10 -16 23 -28 29 -26 7 2 25 -2 42 -11 24 -12 30
-12 34 -1 5 16 122 244 181 354 24 44 58 98 75 120 18 22 58 78 89 125 79 120
123 181 155 214 l29 28 48 -62 c185 -235 303 -370 325 -370 6 0 26 -7 45 -16
40 -19 57 -14 76 19 7 14 103 151 214 304 110 154 225 319 255 367 110 177
205 323 231 356 l27 34 5 -25 c4 -13 19 -94 35 -179 31 -166 106 -511 146
-675 13 -55 33 -153 45 -218 11 -64 29 -140 40 -168 11 -27 20 -66 20 -87 0
-31 5 -40 30 -54 17 -9 30 -24 30 -33 0 -9 9 -15 23 -15 12 0 35 -7 51 -15 37
-19 36 -20 36 14 0 16 7 34 15 41 22 18 19 57 -14 162 -17 51 -37 138 -46 193
-9 55 -25 134 -35 175 -71 277 -210 981 -210 1065 0 50 -22 95 -46 95 -5 0
-20 9 -34 20 -37 29 -60 24 -117 -28z"/>
</g>
</svg>
