<svg width="1160" height="395" xmlns="http://www.w3.org/2000/svg" xmlns:xlink="http://www.w3.org/1999/xlink" overflow="hidden"><defs><clipPath id="clip0"><path d="M396 208 1556 208 1556 603 396 603Z" fill-rule="evenodd" clip-rule="evenodd"/></clipPath><clipPath id="clip1"><path d="M415 217 1555 217 1555 602 415 602Z" fill-rule="evenodd" clip-rule="evenodd"/></clipPath><clipPath id="clip2"><path d="M415 217 1555 217 1555 602 415 602Z" fill-rule="evenodd" clip-rule="evenodd"/></clipPath><clipPath id="clip3"><path d="M415 217 1555 217 1555 602 415 602Z" fill-rule="evenodd" clip-rule="evenodd"/></clipPath><clipPath id="clip4"><path d="M396 217 1555 217 1555 602 396 602Z" fill-rule="evenodd" clip-rule="evenodd"/></clipPath><clipPath id="clip5"><path d="M396 217 1555 217 1555 602 396 602Z" fill-rule="evenodd" clip-rule="evenodd"/></clipPath><clipPath id="clip6"><path d="M396 217 1555 217 1555 602 396 602Z" fill-rule="evenodd" clip-rule="evenodd"/></clipPath></defs><g clip-path="url(#clip0)" transform="translate(-396 -208)"><g clip-path="url(#clip1)"><rect x="416" y="489" width="532" height="53" fill="#404040"/></g><g clip-path="url(#clip2)"><path d="M1062 437 416 437 416 384 1062 384Z" fill="#404040"/></g><g clip-path="url(#clip3)"><path d="M1442 331 416 331 416 278 1442 278Z" fill="#980000"/></g><g clip-path="url(#clip4)"><text fill="#404040" font-family="Lato,Lato_MSFontService,sans-serif" font-weight="400" font-size="24" transform="translate(416.358 568)">XFS with Western Digital Ultrastar DC HC530</text></g><g clip-path="url(#clip5)"><text fill="#404040" font-family="Lato,Lato_MSFontService,sans-serif" font-weight="400" font-size="24" transform="translate(416.389 462)">ext4 with Western Digital Ultrastar DC HC530</text></g><g clip-path="url(#clip6)"><text font-family="Lato,Lato_MSFontService,sans-serif" font-weight="400" font-size="24" transform="translate(416.587 356)">Olympus with Western Digital Ultrastar DC HC620</text></g><text font-family="Lato,Lato_MSFontService,sans-serif" font-weight="700" font-size="27" transform="translate(414.626 243)">Ceph Rados bench average write IOPS (4MB object &amp; block size, 16 threads)</text></g></svg>