<svg width="1159" height="401" xmlns="http://www.w3.org/2000/svg" xmlns:xlink="http://www.w3.org/1999/xlink" overflow="hidden"><defs><clipPath id="clip0"><path d="M2503 1623 3662 1623 3662 2024 2503 2024Z" fill-rule="evenodd" clip-rule="evenodd"/></clipPath><clipPath id="clip1"><path d="M2522 1633 3661 1633 3661 2022 2522 2022Z" fill-rule="evenodd" clip-rule="evenodd"/></clipPath><clipPath id="clip2"><path d="M2522 1633 3661 1633 3661 2022 2522 2022Z" fill-rule="evenodd" clip-rule="evenodd"/></clipPath><clipPath id="clip3"><path d="M2522 1633 3661 1633 3661 2022 2522 2022Z" fill-rule="evenodd" clip-rule="evenodd"/></clipPath><clipPath id="clip4"><path d="M2503 1633 3661 1633 3661 2022 2503 2022Z" fill-rule="evenodd" clip-rule="evenodd"/></clipPath><clipPath id="clip5"><path d="M2503 1633 3661 1633 3661 2022 2503 2022Z" fill-rule="evenodd" clip-rule="evenodd"/></clipPath><clipPath id="clip6"><path d="M2503 1633 3661 1633 3661 2022 2503 2022Z" fill-rule="evenodd" clip-rule="evenodd"/></clipPath></defs><g clip-path="url(#clip0)" transform="translate(-2503 -1623)"><g clip-path="url(#clip1)"><rect x="2523" y="1909" width="1084" height="53" fill="#404040"/></g><g clip-path="url(#clip2)"><path d="M3499 1855 2523 1855 2523 1801 3499 1801Z" fill="#404040"/></g><g clip-path="url(#clip3)"><path d="M2631 1748 2523 1748 2523 1694 2631 1694Z" fill="#980000"/></g><g clip-path="url(#clip4)"><text fill="#404040" font-family="Lato,Lato_MSFontService,sans-serif" font-weight="400" font-size="24" transform="translate(2523.54 1989)">XFS with Western Digital Ultrastar DC HC530</text></g><g clip-path="url(#clip5)"><text fill="#404040" font-family="Lato,Lato_MSFontService,sans-serif" font-weight="400" font-size="24" transform="translate(2522.98 1881)">ext4 with Western Digital Ultrastar DC HC530</text></g><g clip-path="url(#clip6)"><text font-family="Lato,Lato_MSFontService,sans-serif" font-weight="400" font-size="24" transform="translate(2521.5 1773)">Olympus with Western Digital Ultrastar DC HC620</text></g><text font-family="Lato,Lato_MSFontService,sans-serif" font-weight="700" font-size="27" transform="translate(2521.6 1658)">Ceph Rados bench write IOPS standard deviation (4MB object &amp; block size, 16 threads) </text></g></svg>