<svg width="1159" height="401" xmlns="http://www.w3.org/2000/svg" xmlns:xlink="http://www.w3.org/1999/xlink" overflow="hidden"><defs><clipPath id="clip0"><path d="M388 1623 1547 1623 1547 2024 388 2024Z" fill-rule="evenodd" clip-rule="evenodd"/></clipPath><clipPath id="clip1"><path d="M407 1633 1546 1633 1546 2022 407 2022Z" fill-rule="evenodd" clip-rule="evenodd"/></clipPath><clipPath id="clip2"><path d="M407 1633 1546 1633 1546 2022 407 2022Z" fill-rule="evenodd" clip-rule="evenodd"/></clipPath><clipPath id="clip3"><path d="M407 1633 1546 1633 1546 2022 407 2022Z" fill-rule="evenodd" clip-rule="evenodd"/></clipPath><clipPath id="clip4"><path d="M388 1633 1546 1633 1546 2022 388 2022Z" fill-rule="evenodd" clip-rule="evenodd"/></clipPath><clipPath id="clip5"><path d="M388 1633 1546 1633 1546 2022 388 2022Z" fill-rule="evenodd" clip-rule="evenodd"/></clipPath><clipPath id="clip6"><path d="M388 1633 1546 1633 1546 2022 388 2022Z" fill-rule="evenodd" clip-rule="evenodd"/></clipPath></defs><g clip-path="url(#clip0)" transform="translate(-388 -1623)"><g clip-path="url(#clip1)"><rect x="407" y="1909" width="927" height="53" fill="#404040"/></g><g clip-path="url(#clip2)"><path d="M1344 1855 407 1855 407 1801 1344 1801Z" fill="#404040"/></g><g clip-path="url(#clip3)"><path d="M1526 1748 407 1748 407 1694 1526 1694Z" fill="#980000"/></g><g clip-path="url(#clip4)"><text fill="#404040" font-family="Lato,Lato_MSFontService,sans-serif" font-weight="400" font-size="24" transform="translate(408.184 1989)">XFS with Western Digital Ultrastar DC HC530</text></g><g clip-path="url(#clip5)"><text fill="#404040" font-family="Lato,Lato_MSFontService,sans-serif" font-weight="400" font-size="24" transform="translate(407.63 1881)">ext4 with Western Digital Ultrastar DC HC530</text></g><g clip-path="url(#clip6)"><text font-family="Lato,Lato_MSFontService,sans-serif" font-weight="400" font-size="24" transform="translate(407.384 1773)">Olympus with Western Digital Ultrastar DC HC620</text></g><text font-family="Lato,Lato_MSFontService,sans-serif" font-weight="700" font-size="27" transform="translate(406.246 1658)">Apache Hadoop TestDFSIO average read throughput (32 files, 16GB each)</text></g></svg>