<svg width="1139" height="388" xmlns="http://www.w3.org/2000/svg" xmlns:xlink="http://www.w3.org/1999/xlink" overflow="hidden"><defs><clipPath id="clip0"><path d="M62 169 1201 169 1201 557 62 557Z" fill-rule="evenodd" clip-rule="evenodd"/></clipPath><clipPath id="clip1"><path d="M82 169 1200 169 1200 556 82 556Z" fill-rule="evenodd" clip-rule="evenodd"/></clipPath><clipPath id="clip2"><path d="M82 169 1200 169 1200 556 82 556Z" fill-rule="evenodd" clip-rule="evenodd"/></clipPath><clipPath id="clip3"><path d="M82 169 1200 169 1200 556 82 556Z" fill-rule="evenodd" clip-rule="evenodd"/></clipPath><clipPath id="clip4"><path d="M62 169 1200 169 1200 556 62 556Z" fill-rule="evenodd" clip-rule="evenodd"/></clipPath><clipPath id="clip5"><path d="M62 169 1200 169 1200 556 62 556Z" fill-rule="evenodd" clip-rule="evenodd"/></clipPath><clipPath id="clip6"><path d="M62 169 1200 169 1200 556 62 556Z" fill-rule="evenodd" clip-rule="evenodd"/></clipPath></defs><g clip-path="url(#clip0)" transform="translate(-62 -169)"><g clip-path="url(#clip1)"><rect x="82" y="443" width="522" height="53" fill="#404040"/></g><g clip-path="url(#clip2)"><path d="M716 390 82 390 82 336 716 336Z" fill="#404040"/></g><g clip-path="url(#clip3)"><path d="M1089 283 82 283 82 230 1089 230Z" fill="#980000"/></g><g clip-path="url(#clip4)"><text fill="#404040" font-family="Lato,Lato_MSFontService,sans-serif" font-weight="400" font-size="24" transform="translate(82.4864 522)">XFS with Western Digital Ultrastar DC HC530</text></g><g clip-path="url(#clip5)"><text fill="#404040" font-family="Lato,Lato_MSFontService,sans-serif" font-weight="400" font-size="24" transform="translate(79.9738 415)">ext4 with Western Digital Ultrastar DC HC530</text></g><g clip-path="url(#clip6)"><text font-family="Lato,Lato_MSFontService,sans-serif" font-weight="400" font-size="24" transform="translate(81.294 309)">Phalanx with Western Digital Ultrastar DC HC620</text></g></g></svg>