<svg width="1143" height="392" xmlns="http://www.w3.org/2000/svg" xmlns:xlink="http://www.w3.org/1999/xlink" overflow="hidden"><defs><clipPath id="clip0"><path d="M62 167 1205 167 1205 559 62 559Z" fill-rule="evenodd" clip-rule="evenodd"/></clipPath><clipPath id="clip1"><path d="M82 167 1204 167 1204 558 82 558Z" fill-rule="evenodd" clip-rule="evenodd"/></clipPath><clipPath id="clip2"><path d="M82 167 1204 167 1204 558 82 558Z" fill-rule="evenodd" clip-rule="evenodd"/></clipPath><clipPath id="clip3"><path d="M82 167 1204 167 1204 558 82 558Z" fill-rule="evenodd" clip-rule="evenodd"/></clipPath><clipPath id="clip4"><path d="M62 167 1204 167 1204 558 62 558Z" fill-rule="evenodd" clip-rule="evenodd"/></clipPath><clipPath id="clip5"><path d="M62 167 1204 167 1204 558 62 558Z" fill-rule="evenodd" clip-rule="evenodd"/></clipPath><clipPath id="clip6"><path d="M62 167 1204 167 1204 558 62 558Z" fill-rule="evenodd" clip-rule="evenodd"/></clipPath></defs><g clip-path="url(#clip0)" transform="translate(-62 -167)"><g clip-path="url(#clip1)"><rect x="82" y="444" width="62" height="53" fill="#404040"/></g><g clip-path="url(#clip2)"><path d="M140 390 82 390 82 336 140 336Z" fill="#404040"/></g><g clip-path="url(#clip3)"><path d="M1175 283 82 283 82 229 1175 229Z" fill="#980000"/></g><g clip-path="url(#clip4)"><text fill="#404040" font-family="Lato,Lato_MSFontService,sans-serif" font-weight="400" font-size="24" transform="translate(82.517 524)">XFS with Western Digital Ultrastar DC HC530</text></g><g clip-path="url(#clip5)"><text fill="#404040" font-family="Lato,Lato_MSFontService,sans-serif" font-weight="400" font-size="24" transform="translate(82.0858 416)">ext4 with Western Digital Ultrastar DC HC530</text></g><g clip-path="url(#clip6)"><text font-family="Lato,Lato_MSFontService,sans-serif" font-weight="400" font-size="24" transform="translate(79.9335 308)">Phalanx with Western Digital Ultrastar DC HC620</text></g></g></svg>