<svg width="1157" height="399" xmlns="http://www.w3.org/2000/svg" xmlns:xlink="http://www.w3.org/1999/xlink" overflow="hidden"><defs><clipPath id="clip0"><path d="M2543 208 3700 208 3700 607 2543 607Z" fill-rule="evenodd" clip-rule="evenodd"/></clipPath><clipPath id="clip1"><path d="M2563 217 3699 217 3699 605 2563 605Z" fill-rule="evenodd" clip-rule="evenodd"/></clipPath><clipPath id="clip2"><path d="M2563 217 3699 217 3699 605 2563 605Z" fill-rule="evenodd" clip-rule="evenodd"/></clipPath><clipPath id="clip3"><path d="M2563 217 3699 217 3699 605 2563 605Z" fill-rule="evenodd" clip-rule="evenodd"/></clipPath><clipPath id="clip4"><path d="M2544 217 3699 217 3699 605 2544 605Z" fill-rule="evenodd" clip-rule="evenodd"/></clipPath><clipPath id="clip5"><path d="M2544 217 3699 217 3699 605 2544 605Z" fill-rule="evenodd" clip-rule="evenodd"/></clipPath><clipPath id="clip6"><path d="M2544 217 3699 217 3699 605 2544 605Z" fill-rule="evenodd" clip-rule="evenodd"/></clipPath></defs><g clip-path="url(#clip0)" transform="translate(-2543 -208)"><g clip-path="url(#clip1)"><rect x="2563" y="492" width="63" height="53" fill="#404040"/></g><g clip-path="url(#clip2)"><path d="M2622 439 2563 439 2563 385 2622 385Z" fill="#404040"/></g><g clip-path="url(#clip3)"><path d="M3670 332 2563 332 2563 278 3670 278Z" fill="#980000"/></g><g clip-path="url(#clip4)"><text fill="#404040" font-family="Lato,Lato_MSFontService,sans-serif" font-weight="400" font-size="24" transform="translate(2563.61 572)">XFS with Western Digital Ultrastar DC HC530</text></g><g clip-path="url(#clip5)"><text fill="#404040" font-family="Lato,Lato_MSFontService,sans-serif" font-weight="400" font-size="24" transform="translate(2563.18 464)">ext4 with Western Digital Ultrastar DC HC530</text></g><g clip-path="url(#clip6)"><text font-family="Lato,Lato_MSFontService,sans-serif" font-weight="400" font-size="24" transform="translate(2561.7 357)">Olympus with Western Digital Ultrastar DC HC620</text></g><text font-family="Lato,Lato_MSFontService,sans-serif" font-weight="700" font-size="27" transform="translate(2561.96 243)">fio<tspan x="36.8335" y="0">random write average IOPS (4KB block size, 200GB file size, 64 threads)</tspan></text></g></svg>